<?xml version="1.0" standalone="no"?><!DOCTYPE svg PUBLIC "-//W3C//DTD SVG 1.1//EN" "http://www.w3.org/Graphics/SVG/1.1/DTD/svg11.dtd"><svg t="1585550507870" class="icon" viewBox="0 0 1024 1024" version="1.1" xmlns="http://www.w3.org/2000/svg" p-id="11402" xmlns:xlink="http://www.w3.org/1999/xlink" width="48" height="48"><defs><style type="text/css"></style></defs><path d="M512 0c282.779826 0 512 229.220174 512 512S794.779826 1024 512 1024 0 794.779826 0 512 229.220174 0 512 0z m0 44.521739C253.818435 44.521739 44.521739 253.818435 44.521739 512s209.296696 467.478261 467.478261 467.478261 467.478261-209.296696 467.478261-467.478261S770.181565 44.521739 512 44.521739z m4.763826 309.092174l13.913044 15.09287c2.226087 1.669565 4.140522 3.762087 5.609739 6.121739l119.897043 130.226087a22.26087 22.26087 0 0 1-30.742261 32.077913l-2.003478-1.936696-83.834435-91.024696v209.519305a22.26087 22.26087 0 0 1-44.343652 2.604522l-0.155826-2.604522-0.022261-210.320696-83.700869 91.759304a22.26087 22.26087 0 0 1-29.273044 3.183305l-2.181565-1.736348a22.26087 22.26087 0 0 1-3.183304-29.273043l1.736347-2.181566 138.284522-151.507478z" p-id="11403" fill="#dfe6e9"></path></svg>