<?xml version="1.0" standalone="no"?><!DOCTYPE svg PUBLIC "-//W3C//DTD SVG 1.1//EN" "http://www.w3.org/Graphics/SVG/1.1/DTD/svg11.dtd"><svg t="1591877091144" class="icon" viewBox="0 0 1024 1024" version="1.1" xmlns="http://www.w3.org/2000/svg" p-id="5753" xmlns:xlink="http://www.w3.org/1999/xlink" width="48" height="48"><defs><style type="text/css"></style></defs><path d="M705.536 592.384h118.272c14.848 0 27.648-11.776 27.648-27.136V488.96c0-14.848-12.288-27.136-27.136-27.136H705.536c-15.36 0-27.648 12.288-27.648 27.136v76.288c0 15.36 12.288 27.648 27.648 27.136 0 0.512 0 0.512 0 0z m-252.928 225.28h118.784c14.848 0 27.136-12.288 27.136-27.136v-75.264c0-14.848-12.288-27.136-27.136-27.136H452.608c-14.848 0-27.136 11.776-27.136 26.624V790.528c0 14.848 12.288 27.136 27.136 27.136z m-252.416 0h118.272c14.848 0 27.648-11.776 27.648-27.136V714.752c0-14.848-12.8-27.136-27.648-27.136H200.192c-14.848-0.512-27.136 11.264-27.648 26.112V789.504c0 15.872 12.288 28.16 27.648 28.16-0.512 0-0.512 0 0 0z m0-225.28h118.272c14.848 0 27.648-11.776 27.648-27.136V488.96c0-15.36-12.288-27.136-27.648-27.136H200.192c-14.848 0-27.648 11.776-27.648 27.136v76.8c0 14.848 12.288 27.136 27.648 26.624-0.512 0.512-0.512 0.512 0 0z m505.344 225.28h118.272c14.848 0 27.648-11.776 27.648-27.136V714.752c0-14.848-12.288-27.136-27.136-27.136H705.536c-14.848 0-27.648 11.776-27.648 27.136v75.264c0 15.36 12.288 27.648 27.648 27.648z m-252.928-225.28h118.784c14.848 0 27.136-11.776 27.136-26.624v-76.8c0-14.848-12.288-27.136-27.136-27.136H452.608c-14.848 0-27.136 12.288-27.136 27.136v76.288c0 15.36 12.288 27.648 27.136 27.136zM244.224 271.36c30.72 0.512 55.808-24.064 55.808-54.784V53.248C297.984 22.528 270.848-0.512 239.616 1.536 211.968 3.584 190.464 25.6 187.904 53.248v162.304c0.512 31.232 25.6 56.32 56.32 55.808z m534.528 0c30.72 0.512 55.808-24.064 56.32-54.784V53.248c-2.56-31.232-29.696-54.272-60.416-51.712-27.648 2.048-49.664 24.064-51.712 51.712v162.304c-0.512 31.232 24.576 55.808 55.808 55.808-0.512 0-0.512 0 0 0z m150.016-173.056h-59.904v117.76c-3.072 49.664-46.08 87.552-95.744 84.48-45.568-2.56-81.92-38.912-84.48-84.48V97.28H334.848v118.272c0 50.176-40.448 90.624-90.624 90.624S153.6 265.728 153.6 215.552V97.28H95.232C43.008 96.768 0.512 138.752 0 190.464v738.304c0.512 52.224 43.008 93.696 95.232 93.696h833.536c52.224 0.512 94.72-41.472 95.232-93.696V190.464c-0.512-52.224-43.008-93.696-95.232-93.184v1.024z m12.288 831.488c0 6.656-5.632 12.288-12.288 12.288H95.232c-6.656 0-12.288-5.632-12.288-12.288V343.04h858.112v586.752z" fill="#515151" p-id="5754"></path></svg>